<?xml version="1.0" encoding="iso-8859-1"?>
<!-- Uploaded to: SVG Repo, www.svgrepo.com, Generator: SVG Repo Mixer Tools -->
<!DOCTYPE svg PUBLIC "-//W3C//DTD SVG 1.1//EN" "http://www.w3.org/Graphics/SVG/1.1/DTD/svg11.dtd">
<svg fill="#000000" version="1.1" id="Capa_1" xmlns="http://www.w3.org/2000/svg" xmlns:xlink="http://www.w3.org/1999/xlink" 
	 width="800px" height="800px" viewBox="0 0 107.112 107.112"
	 xml:space="preserve">
<g>
	<g>
		<path d="M51.724,33.743c-0.244-0.061-0.447-0.162-0.604-0.358c0.262,0.2,0.229,0.379-0.021,0.586
			c-0.193,0.161-0.387,0.378-0.234,0.651c0.172,0.309,0.49,0.302,0.781,0.216c0.271-0.079,0.711-0.108,0.713-0.397
			C52.363,34.146,52.083,33.833,51.724,33.743z"/>
		<path d="M44.375,62.244c-0.05-0.268-0.104-0.529-0.208-0.831c-0.143,0.578-1.08,0.785-0.809,1.364
			c0.209,0.447,0.063,1.104,0.604,1.395c0.105-0.328,0.449-0.475,0.68-0.617c0.229-0.145,0.541,0.319,0.91,0.349
			c0.203,0.016,0.107,0.267,0.082,0.428c-0.032,0.204-0.05,0.412-0.074,0.618c0.26,0.354,0.667,0.385,1.039,0.49
			c0.172-0.082,0.325-0.199,0.527-0.086c0.344,0.262,0.272,0.606,0.195,0.953c-0.01,0.028-0.021,0.055-0.031,0.082
			c0.009-0.021,0.021-0.037,0.029-0.059c0.186-0.168,0.32-0.012,0.469,0.062c0.203-0.517,0.318-1.065,0.549-1.571
			c-0.365-0.298-0.594-0.71-0.838-1.095c-0.289-0.451-0.684-0.603-1.162-0.621c-0.518-0.018-0.957-0.178-1.291-0.559
			C44.656,62.821,44.452,62.656,44.375,62.244z"/>
		<path d="M46.286,73.874c-0.051-0.021-0.104-0.034-0.153-0.051c-0.044,0.006-0.085,0.021-0.13,0.024
			c-0.145,0.024-0.281,0.072-0.404,0.152c0.004,0.041,0.014,0.08,0.016,0.123c0.006,0.203,0.109,0.367,0.297,0.443
			c0.276,0.109,0.619,0.369,0.821-0.025C46.925,74.165,46.597,73.988,46.286,73.874z"/>
		<path d="M38.544,57.754c0.008,0.004,0.014,0.01,0.02,0.014c0.025,0.013,0.037,0.015,0.041-0.002
			c0.002-0.004,0.002-0.002,0.004-0.006c-0.011,0-0.021,0-0.042-0.013C38.56,57.75,38.552,57.75,38.544,57.754z"/>
		<path d="M36.714,57.172c-0.051,0.024-0.1,0.039-0.148,0.051c0.02,0.002,0.036,0,0.057,0.004c0.327,0.045,0.697,0.119,0.938,0.324
			c0.327,0.277,0.638,0.323,0.983,0.203c-0.09-0.052-0.182-0.107-0.25-0.183C37.857,57.08,37.388,56.842,36.714,57.172z"/>
		<path d="M44.492,34.422c0.037-0.052,0.068-0.099,0.059-0.11c-0.547-0.65,0.271-1.668-0.609-2.23
			c-0.291-0.185-0.156-0.292,0.093-0.423c0.221-0.116,0.748-0.007,0.63-0.31c-0.158-0.404-0.104-0.976-0.58-1.207
			c-0.382-0.184-0.795-0.634-1.184,0.103c-0.115,0.217-0.689,0.101-0.873,0.487c-0.059,0.575-0.422,0.974-0.767,1.382
			c0.012,0.02,0.026,0.032,0.037,0.054c0.091,0.302-0.043,0.582-0.107,0.86c-0.075,0.329-0.325,0.471-0.669,0.428
			c-0.675-0.083-0.949,0.227-0.78,0.896c0.044,0.179,0.163,0.345-0.001,0.518c0.314,0.12,0.604,0.136,0.77-0.35
			c0.186-0.141,0.393-0.21,0.625-0.193c0.579,0.273,0.053,0.522-0.017,0.781c-0.034,0.014-0.069,0.027-0.104,0.041
			c-0.245,0.068-0.392,0.19-0.491,0.339c0.074,0.281,0.059,0.583,0.052,0.881c0.001-0.002,0.001-0.003,0.002-0.005
			c0.11-0.535,0.532-0.813,1.062-0.742c0.41,0.055,0.658,0.498,0.604,1.058c-0.034,0.346-0.002,0.707-0.369,0.987
			c0.473,0.043,0.367-0.302,0.365-0.438c-0.006-0.451,0.079-0.859,0.355-1.212c0.141-0.178,0.129-0.325,0.029-0.515
			c-0.232-0.441-0.146-0.854,0.298-0.992C43.425,34.354,43.966,34.084,44.492,34.422z"/>
		<path d="M35.079,50.392c0.131-0.033,0.25-0.072,0.34-0.105C35.335,50.32,35.202,50.342,35.079,50.392z"/>
		<path d="M47.337,58.283c-0.005-0.021-0.006-0.044-0.008-0.064c-0.002,0.004-0.004,0.004-0.004,0.01
			C47.322,58.264,47.32,58.278,47.337,58.283z"/>
		<path d="M47.35,58.287c-0.009,0.001-0.009-0.004-0.013-0.005c0.003,0.017,0,0.036,0.006,0.052
			C47.331,58.379,47.434,58.282,47.35,58.287z"/>
		<path d="M18.561,23.822c-0.052,0.024-0.103,0.051-0.147,0.09v0.001h0.002C18.458,23.873,18.509,23.847,18.561,23.822z"/>
		<path d="M55.195,30.406c-0.105,0.056-0.281,0.173-0.426,0.082c-0.002,0.002-0.006,0.004-0.008,0.007
			c-0.039,0.019-0.08,0.024-0.119,0.031c-0.025,0.345-0.021,0.67,0.463,0.801c0.143,0.038,0.371,0.209,0.424,0.133
			c0.254-0.366,0.736-0.207,1.008-0.486c0.092-0.095,0.061-0.214-0.055-0.252C56.064,30.583,55.734,30.128,55.195,30.406z"/>
		<path d="M44.691,10.521c0.099-0.101,0.211-0.195,0.344-0.278C44.859,10.317,44.754,10.412,44.691,10.521z"/>
		<path d="M47.26,66.461c0.009-0.025,0.021-0.047,0.03-0.072c-0.012,0.025-0.025,0.047-0.039,0.071
			C47.255,66.46,47.257,66.461,47.26,66.461z"/>
		<path d="M31.745,54.545c0.01,0.053,0.035,0.102,0.058,0.15c0.011-0.135-0.003-0.279-0.058-0.441
			C31.745,54.352,31.728,54.443,31.745,54.545z"/>
		<path d="M32.837,53.062c0.375-0.021,0.5-0.122,0.502-0.458c0.174-0.408,0.427-0.784,0.484-1.237
			c0.395-0.186,0.785-0.357,1.016-0.783c0.053-0.099,0.145-0.153,0.24-0.192c-0.103,0.026-0.211,0.049-0.326,0.055
			c-0.334,0.017-0.477-0.277-0.67-0.464c-0.168-0.161-0.367-0.227-0.564-0.245c-0.25-0.022-0.395-0.141-0.449-0.353
			c-0.061-0.227,0.051-0.393,0.256-0.519c0.248-0.151,0.543-0.33,0.451-0.667c-0.043-0.16-0.244-0.277-0.121-0.487
			c-0.061,0.292-0.256,0.349-0.522,0.321c-0.188-0.02-0.288-0.158-0.425-0.25c-0.461-0.312-1.131-0.212-1.48,0.213
			c-0.721,0.877-1.332,1.074-2.397,0.738c-0.348-0.109-0.698-0.15-1.056-0.137c0.018,0.034,0.039,0.065,0.041,0.11
			c0.01,0.052,0.002,0.087,0.004,0.132c0.536,0.208,0.367,0.843,0.613,1.287c0.438-0.419,0.853-0.373,1.276,0.048
			c0.153,0.151,0.415,0.192,0.626,0.285c0.189,0.084,0.436,0.14,0.428,0.399c-0.008,0.214-0.227,0.298-0.397,0.363
			c-0.239,0.09-0.427-0.044-0.511-0.252c-0.131-0.324-0.299-0.507-0.661-0.33c-0.071,0.035-0.182,0.088-0.188,0.143
			c-0.021,0.19,0.118,0.46-0.229,0.466c-0.327,0.006-0.694,0.131-0.97-0.134c-0.318-0.306-0.756-0.31-1.201-0.606
			c0.086,0.213,0.127,0.305,0.16,0.399c0.082,0.225,0.591,0.378,0.152,0.689c-0.357,0.253-0.889,0.087-1.089-0.295
			c-0.019-0.037-0.036-0.077-0.046-0.117c-0.082-0.36-0.043-0.893-0.479-0.931c-0.161-0.014-0.294,0.048-0.416,0.134
			c-0.02,0.096-0.024,0.209-0.016,0.339c0.01,0.127-0.11,0.221-0.154,0.338c-0.107,0.29-0.037,0.487,0.281,0.574
			c0.263,0.072,0.518,0.171,0.771,0.266c0.436,0.161,0.488,0.487,0.137,0.802c-0.152,0.138-0.334,0.246-0.439,0.446
			c0.797,0.003,0.802,0.003,0.848,0.846c0.018,0.35,0.225,0.527,0.52,0.635c0.285,0.104,0.555,0.235,0.816,0.383
			c-0.025-0.608,0.209-0.696,1.003-0.631c0.841,0.07,1.729,0.236,2.431-0.49c0.126-0.131,0.309-0.252,0.51-0.172
			c0.245,0.096,0.082,0.334,0.142,0.494c0.005,0.014,0.003,0.023,0.007,0.037C31.753,53.605,32.146,53.1,32.837,53.062z"/>
		<path d="M25.084,63.485c-0.031-0.087-0.044-0.179-0.068-0.267c-0.024-0.029-0.054-0.05-0.064-0.1
			c-0.262-1.162-0.597-2.309-0.728-3.495c-0.026-0.231-0.084-0.452-0.213-0.651c-0.326-0.498-0.583-0.506-0.879,0.014
			c-0.221,0.389-0.446,0.463-0.777,0.137c-0.141-0.139-0.385-0.261-0.511-0.143c-0.322,0.307-0.702,0.25-1.067,0.269
			c0.113,0.399,0.146,0.813,0.084,1.216c-0.095,0.602,0.13,1.119,0.332,1.646c0.168,0.437,0.535,0.558,0.979,0.503
			c0.197-0.023,0.453-0.201,0.536,0.152c0.269-0.459,0.647-0.312,0.952-0.104c0.38,0.262,0.737,0.545,1.162,0.743
			c0.213,0.099,0.396,0.28,0.415,0.56c0.006,0.09,0.026,0.153,0.054,0.204c0.003-0.009,0.005-0.017,0.008-0.024
			c-0.027-0.062-0.047-0.135-0.057-0.232C25.227,63.766,25.154,63.619,25.084,63.485z"/>
		<path d="M22.714,62.781c-0.001-0.008-0.006-0.008-0.007-0.016c-0.001,0-0.001,0-0.001,0
			C22.712,62.768,22.715,62.783,22.714,62.781z"/>
		<path d="M34.336,56.791c-0.099,0.088-0.202,0.139-0.304,0.169c0.033-0.002,0.063,0.001,0.099-0.004
			c0.388-0.052,0.625,0.162,0.756,0.521c0.122,0.332,0.175,0.697,0.435,0.967c-0.098-0.689,0.268-1.161,0.91-1.223
			c-0.281-0.067-0.538-0.276-0.776-0.424C35.046,56.541,34.742,56.438,34.336,56.791z"/>
		<path d="M53.556,1.055c-28.949,0-52.5,23.552-52.5,52.501c0,28.949,23.551,52.5,52.5,52.5c28.95,0,52.502-23.551,52.502-52.5
			C106.059,24.607,82.506,1.055,53.556,1.055z M85.277,22.288c0.275,0.09,0.566,0.136,0.809,0.333
			c0.393,0.318,0.439,0.539-0.123,0.664c-0.088-0.084-0.174-0.168-0.262-0.251c-0.139-0.162-0.309-0.195-0.514-0.162
			c-0.258,0.042-0.346-0.108-0.318-0.337C84.896,22.287,85.059,22.217,85.277,22.288z M73.281,15.431
			c0.221-0.101,0.195-0.289,0.215-0.479c0.08-0.856,0.605-1.498,1.287-1.851c0.375-0.195,0.912,0.245,1.258,0.612
			c0.129,0.135,0.213,0.311,0.318,0.468c0.135-0.054,0.268-0.117,0.408-0.159c0.25-0.076,0.396-0.189,0.162-0.432
			c-0.105-0.109-0.238-0.208-0.146-0.369c0.103-0.169,0.293-0.142,0.457-0.122c0.121,0.014,0.248,0.055,0.353,0.117
			c0.385,0.227,0.709,0.541,1.227,0.523c0.189-0.006,0.539,0.128,0.484,0.572c-0.047,0.369,0.594,0.341,0.619,0.751l0.002,0.001
			c0.44-0.042,0.709,0.244,0.983,0.518c0.138,0.103,0.299,0.188,0.448,0.212c0.355,0.058,0.558,0.235,0.699,0.56
			c0.111,0.249,0.289,0.445,0.601,0.541c0.437,0.133,0.573,0.544,0.471,0.938c-0.104,0.401-0.004,0.676,0.244,0.968
			c0.613,0.72,0.541,2.103-0.155,2.732c-0.244,0.219-0.386,0.556-0.73,0.665c-0.064-0.012-0.129-0.004-0.193-0.008
			c-0.248,0.202-0.592,0.021-0.875,0.084c-0.016-0.013-0.031-0.018-0.047-0.03c-0.311,0.042-0.621,0.07-0.934,0.007
			c0.016,0.055,0.014,0.113-0.043,0.182c-0.086,0.105-0.236,0.146-0.34,0.079c-0.572-0.379-1.375-0.342-1.789-0.999l-0.002-0.001
			c-0.605-0.123-1.068-0.562-1.644-0.754c-0.039-0.003-0.078-0.005-0.117-0.008c-0.254-0.115-0.471-0.3-0.741-0.391
			c-0.129-0.042-0.271-0.211-0.183-0.331c0.511-0.668-0.149-0.769-0.478-1.035c-0.041-0.001-0.08-0.004-0.121-0.008
			c-0.067-0.167-0.131-0.334,0.003-0.501c-0.003-0.041-0.007-0.082-0.007-0.122c0,0,0,0-0.002,0
			c-0.51,0.204-0.575-0.357-0.879-0.509c-0.574-0.506-1.133-1.011-1.057-1.894C73.061,15.73,73.055,15.535,73.281,15.431z
			 M67.615,16.118c0.109-0.3,0.393-0.285,0.645-0.217c0.324,0.087,0.512,0.286,0.457,0.472c-0.162,0.604,0.26,0.796,0.361,1.131
			c0.057,0.192,0.266,0.368,0.072,0.572c-0.18,0.188-0.344,0.045-0.496-0.072c-0.168-0.129-0.383-0.009-0.549-0.091
			c-0.23-0.114-0.771-0.126-0.238-0.574c0.215-0.182,0.061-0.314-0.102-0.377C67.249,16.755,67.512,16.406,67.615,16.118z
			 M12.419,81.174c-0.355-0.054-0.434-0.416-0.535-0.699c-0.055-0.152,0.007-0.387,0.227-0.365c0.366,0.035,0.508,0.324,0.584,0.629
			C12.685,80.956,12.648,81.206,12.419,81.174z M16.49,83.027c-0.337,0.283-0.674,0.09-0.967-0.133
			c-1.16-0.879-1.61-2.037-1.343-3.439c1.317,0.355,1.956,1.385,2.466,2.535C16.814,82.367,16.819,82.751,16.49,83.027z
			 M36.906,94.71c-0.225-0.022-0.52-0.063-0.49-0.34c0.027-0.265,0.357-0.229,0.566-0.274c0.209-0.043,0.393,0.063,0.387,0.293
			C37.361,94.658,37.124,94.682,36.906,94.71z M44.55,98.031c-0.127-0.084-0.254-0.168-0.381-0.254
			c-0.114-0.162-0.286-0.238-0.457-0.32c-0.296-0.145-0.354-0.402-0.281-0.689c0.076-0.293,0.35-0.256,0.567-0.282
			c0.142-0.021,0.292,0.03,0.436,0.016c0.857-0.09,1.059,0.021,1.107,0.632C45.588,97.71,45.302,97.973,44.55,98.031z
			 M46.678,91.066c-0.129,0.082-0.196,0.129-0.114,0.271c0,0,0.001,0.004,0,0.004c-0.783,0.479-1.594,0.807-2.52,0.416
			c-0.193-0.082-0.398-0.252-0.592-0.148c-0.593,0.311-0.811-0.066-0.967-0.508c-0.15-0.422-0.535-0.689-0.722-1.117
			c0.456-0.143,0.824,0.271,1.079,0.234c0.575-0.084,1.251,0.018,1.73-0.438c0.333-0.317,0.477-0.399,0.593,0.168
			c0.133,0.653,0.794,0.912,1.403,0.631c0.041,0.002,0.083,0.002,0.124,0.002C46.919,90.751,46.879,90.939,46.678,91.066z
			 M51.156,84.361c-0.262-0.006-0.449-0.119-0.445-0.408c0.004-0.213,0.131-0.371,0.348-0.363c0.289,0.008,0.398,0.252,0.512,0.461
			C51.525,84.303,51.357,84.365,51.156,84.361z M94.044,44.114c-0.385-0.035-0.364-0.474-0.627-0.638
			c-0.094,0.09-0.114,0.224-0.049,0.287c0.813,0.756,0.731,1.739,0.533,2.648c-0.175,0.804-0.875,1.257-1.646,1.533
			c-0.242-0.029-0.312-0.204-0.298-0.401c0.043-0.582-0.327-0.868-0.764-1.118c-0.962-0.551-1.015-0.707-0.671-1.771
			c0.115-0.357,0.263-0.707,0.308-1.085c0.022-0.19,0.074-0.379,0.283-0.446c0.248-0.08,0.313,0.162,0.45,0.276
			c-0.002-0.011,0.011-0.017-0.006-0.029c-0.369-0.275-0.104-0.63-0.119-0.949c-0.004-0.086-0.012-0.171-0.016-0.257
			c0.164-0.303,0.176-0.609-0.088-0.849c-0.189-0.175-0.104-0.381-0.146-0.572c-0.002-0.024-0.01-0.04-0.012-0.062
			c-0.24-0.025-0.479-0.047-0.711-0.1c-0.166-0.038-0.309-0.108-0.414-0.216c-0.053,0.001-0.106,0.006-0.16,0.019
			c-0.049,0.03-0.1,0.049-0.151,0.068c-0.078-0.011-0.136,0.012-0.19,0.037c-0.05,0.233-0.062,0.473-0.054,0.717
			c-0.205-0.042-0.323-0.169-0.412-0.329c-0.034,0.019-0.063,0.046-0.104,0.051c-0.541-0.083-0.924,0-0.975,0.681
			c-0.027,0.369-0.326,0.503-0.628,0.212c-0.567-0.55-1.221-0.87-2.018-0.873c-0.171,0-0.244-0.146-0.337-0.259
			c-0.271-0.307-0.465-0.626-0.188-1.031c0.041-0.061,0.091-0.116,0.138-0.172c-0.047-0.097-0.095-0.193-0.154-0.279
			c-0.229-0.325-0.527-0.347-0.777-0.054c-0.197,0.233-0.24,0.744-0.637,0.598c-0.383-0.142-0.344-0.62-0.336-0.999
			c0.002-0.063,0.006-0.125,0.008-0.187c0.062-0.183,0.234-0.191,0.389-0.23c-0.01-0.007-0.023-0.005-0.031-0.013
			c-0.01-0.034-0.008-0.068-0.016-0.103c-0.406,0.164-0.947,0.052-1.236-0.299c0.008-0.195-0.065-0.368-0.16-0.532
			c-0.123-0.215-0.313-0.428-0.08-0.674c0.234-0.248,0.529-0.414,0.873-0.442c0.298-0.024,0.261,0.263,0.341,0.444
			c0.077-0.176,0.116-0.318,0.131-0.443c-0.172-0.529-0.459-0.645-1.194-0.514c-0.468-0.27-0.89-0.607-1.482-0.615
			c-0.398-0.005-0.346-0.387-0.389-0.672c-0.097-0.655-0.185-1.313-0.343-1.958c-0.006,0.207-0.018,0.413-0.053,0.617
			c-0.035,0.192-0.021,0.398-0.302,0.479c-0.268,0.077-0.381-0.052-0.514-0.214c-0.031-0.09-0.057-0.183-0.094-0.266
			c-0.236,0-0.475-0.002-0.713,0.005c-0.123,0.004-0.326,0.011-0.354,0.075c-0.187,0.44-0.392,0.521-0.756,0.159
			c-0.154-0.153-0.244,0.077-0.314,0.188c-0.217,0.343-0.426,0.524-0.736,0.079c-0.123-0.176-0.348-0.226-0.559-0.262
			c-0.041-0.003-0.082-0.005-0.123-0.005c-0.359,0.34-0.773,0.487-1.266,0.376c-0.654-0.089-0.588,0.377-0.359,0.636
			c0.445,0.51,0.031,1.214,0.482,1.685c0.01,0.011,0.006,0.047-0.004,0.061c-0.761,1.025,0.309,1.776,0.397,2.673
			c0.12,0.044,0.241,0.089,0.362,0.134c0.388,0.225,0.627,0.543,0.66,1.007c0.008,0.121,0.043,0.281,0.125,0.348
			c0.764,0.617,0.631,1.637,1.09,2.389c0.103,0.166,0.086,0.478,0.396,0.346c0.233-0.1,0.155-0.308,0.041-0.479
			c-0.076-0.116-0.117-0.235,0.019-0.33c0.147-0.104,0.244,0.036,0.313,0.119c0.629,0.736,1.319,0.679,2.16,0.339
			c0.403-0.164,0.901-0.594,1.428-0.142c0.082,0.07,0.185-0.048,0.256-0.128c0.113-0.125,0.052-0.467,0.314-0.375
			c0.223,0.077,0.125,0.368,0.145,0.568c0,0.012,0,0.024,0,0.036c0.039,0,0.078,0,0.117-0.001c0.317,0.109,0.681,0.084,0.963,0.299
			c0.024,0.035,0.031,0.076,0.039,0.117c0.037-0.021,0.074-0.039,0.113-0.057c0.135-0.133,0.34-0.162,0.5-0.256
			c0.184-0.019,0.401-0.048,0.407,0.217c0.006,0.281,0.121,0.5,0.291,0.698c0.16,0.186,0.097,0.374-0.03,0.499
			c-0.293,0.289-0.119,0.438,0.127,0.591c0.526,0.529,0.496,1.357,1.012,1.892c0.011,0.285,0.123,0.541,0.313,0.733
			c0.431,0.436,0.437,1.084,0.826,1.549c0.174,0.205-0.076,0.424-0.309,0.503c-0.26,0.088-0.529,0.089-0.797-0.005
			c-0.146-0.052-0.311-0.259-0.443-0.101c-0.15,0.178,0.064,0.333,0.162,0.484h-0.004c-0.26,0.197,0.023,0.573-0.252,0.765
			l-0.001,0.001c-0.174,0.153-0.387,0.231-0.575,0.083c-0.365-0.285-0.802-0.282-1.197-0.245c-0.609,0.056-1.088-0.356-1.666-0.356
			c-0.068,0-0.127-0.05-0.154-0.095c-0.404-0.658-1.09-0.989-1.646-1.468c-0.336-0.289-0.518-0.801-0.371-1.395
			c0.189-0.759,0.342-1.541,0.396-2.328c-0.056-0.062-0.104-0.129-0.181-0.168c-0.178-0.137-0.387-0.148-0.598-0.157
			c-0.139-0.006-0.246-0.053-0.342-0.113c-0.131-0.043-0.262-0.098-0.395-0.166c-0.635-0.326-0.814-0.188-0.851,0.522
			c-0.008,0.146-0.008,0.295-0.028,0.44c-0.037,0.271-0.174,0.501-0.445,0.55c-0.287,0.051-0.389-0.216-0.473-0.423
			c-0.244-0.596-0.652-0.959-1.31-1.036c-0.138-0.017-0.287-0.089-0.396-0.18c-0.375-0.316-0.692-0.059-0.723,0.224
			c-0.064,0.619-0.83,0.429-0.955,0.947c-0.02,0.087-0.227-0.07-0.201-0.199c0.072-0.377-0.061-0.651-0.354-0.878
			c-0.057-0.044-0.111-0.16-0.092-0.217c0.232-0.708-0.438-0.579-0.73-0.757c-0.346-0.21-0.691-0.136-0.898,0.308
			c-0.139-0.269-0.059-0.501-0.086-0.724c-0.256-0.248-0.082-0.52,0.021-0.734c0.08-0.172,0.125-0.273-0.019-0.405
			c-0.004-0.042-0.006-0.083-0.01-0.123c0.402-0.206,0.851-0.005,1.26-0.135c0.002-0.038,0.005-0.075,0.005-0.112
			c-0.355-0.182-0.574-0.523-0.882-0.762c-0.039-0.003-0.078-0.006-0.116-0.008c-0.285-0.271-0.521-0.583-0.731-0.912
			c0,0.217-0.248,0.327-0.48,0.412c-0.369,0.133-0.73,0.213-1.029,0.525c-0.223,0.234-0.551,0.076-0.807-0.08
			c-0.615-0.379-0.965-0.328-1.506,0.18c-0.176,0.166-0.332,0.399-0.629,0.386c-0.871,0.042-0.871,0.042-0.867-0.792
			c0-0.172-0.104-0.454-0.223-0.322c-0.423,0.462-0.595-0.024-0.855-0.155c-0.148-0.075-0.287-0.169-0.43-0.255
			c-0.316,0.021-0.666-0.074-0.896,0.252c-0.381,0.641-0.379,0.639-0.854,0.006c-0.072-0.096-0.166-0.2-0.273-0.242
			c-0.42-0.164-0.469-0.385-0.146-0.694c0.15-0.144,0.287-0.383,0.053-0.462c-0.768-0.26-0.778-1.3-1.647-1.486
			c-0.373-0.08-0.041-0.496,0.024-0.753c-0.717-0.014-1.364-0.301-2.057-0.198c-0.197,0.029-0.271-0.135-0.289-0.333
			c-0.045-0.505,0.389-0.715,0.644-1.022c0.092-0.113,0.317,0.038,0.356,0.23c0.043,0.21,0.152,0.235,0.314,0.15
			c0.092-0.047,0.221-0.099,0.244-0.175c0.059-0.192-0.139-0.216-0.252-0.301c-0.322-0.245-0.807-0.346-0.912-0.792
			c-0.02-0.008-0.039-0.015-0.057-0.022c-0.058-0.008-0.113-0.014-0.172-0.02c-0.099-0.077-0.17-0.157-0.228-0.24
			c-0.063-0.027-0.119-0.07-0.146-0.163c-0.063-0.225,0.086-0.387,0.246-0.525c0.043-0.037,0.088-0.073,0.131-0.11
			c0.029-0.096,0.053-0.194,0.076-0.292c-0.549,0.246-0.934,0.664-1.176,1.239c-0.053,0.125-0.188,0.195-0.328,0.124
			c0.193,0.156,0.383,0.342,0.586,0.511c0.096,0.08,0.195,0.169,0.248,0.283c0.08,0.168,0.305,0.446,0.119,0.514
			c-0.623,0.228-0.148,1.218-0.908,1.257c-0.43,0.022-0.541,0.173-0.383,0.541c0.117,0.273,0.053,0.553,0.064,0.829
			c0.062,0,0.127,0.013,0.186,0.049c0.348,0.216,0.709,0.458,0.734,0.933c0.023,0.429-0.146,0.706-0.578,0.884
			c-0.699,0.29-1.072,0.885-1.26,1.603c-0.014,0.004-0.025,0.001-0.039,0.002c0.34,0.806-0.504,1.961-1.375,1.758
			c-0.229-0.053-0.459-0.034-0.689-0.003c-0.811,0.11-1.098,0.798-0.605,1.461c0.221,0.297,0.527,0.461,0.869,0.596
			c0.646,0.255,0.701,0.467,0.324,1.047c-0.211,0.326-0.092,0.587,0.311,0.763c0.193,0.084,0.408,0.139,0.531,0.37
			c0.062,0.111,0.176,0.228,0.076,0.305c-0.277,0.215-0.551,0.42-0.799,0.678c-0.15,0.158-0.369,0.042-0.566-0.031
			c0,0.004,0,0.008,0,0.012c0.006,0.077-0.006,0.151-0.006,0.227c0.129,0.333,0.295,0.29,1.006,0.093
			c0.063,0.157,0.207,0.234,0.328,0.331c0.34,0.269,0.32,0.583-0.072,1.054c-0.196,0.108-0.452,0.13-0.583,0.34
			c-0.105,0.168-0.412,0.226-0.33,0.482c0.076,0.236,0.367-0.104,0.525,0.235c-0.467,0.081-0.887,0.291-1.355,0.323
			c-0.084,0.09-0.178,0.177-0.268,0.251c-0.396,0.033-0.813,0.349-1.191-0.059c-0.004-0.07,0.002-0.136,0.004-0.203
			c-0.396-0.073-0.795,0.013-1.193,0.022c-0.039,0.078-0.078,0.156-0.127,0.25c-0.346,0.096-0.68,0.209-0.883,0.539
			c-0.033,0.055-0.08,0.131-0.127,0.133c-0.779,0.049-1.512,0.615-2.324,0.274c-0.002,0.003-0.003,0.006-0.004,0.009
			c0.012,0.029,0.025,0.06,0.035,0.085c0.189,0.478,0.54,0.617,0.997,0.544c0.651-0.103,1.067,0.128,1.222,0.784
			c0.123,0.404,0.037,0.724-0.332,0.98c-0.443,0.309-0.776,0.809-1.424,0.707c-0.221-0.035-0.232,0.143-0.244,0.301
			c0,0.26-0.231,0.334-0.383,0.473c-0.27,0.103-0.383,0.35-0.512,0.572c-0.268,0.469-0.232,0.537,0.299,0.59
			c0.398,0.041,0.743,0.252,1.14,0.314c0.317,0.051,0.22,0.348,0.243,0.598c0.039-0.293,0.279-0.246,0.469-0.27
			c0.609-0.072,1.211,0.09,1.82,0.047c0.186-0.013,0.357,0.092,0.348,0.285c-0.043,0.854,0.633,1.139,1.193,1.453
			c1.047,0.59,1.064,0.559,1.287,1.672c0.283-0.344,0.291-0.805,0.646-1.081c0.453-0.353,0.605-0.349,0.801,0.179
			c0.068,0.188,0.285,0.328,0.201,0.57c-0.004,0.09-0.002,0.18-0.022,0.268c-0.011,0.006-0.017,0.017-0.024,0.021
			c0.518,0.216,0.834,0.58,1.077,1.164c0.396,0.943,0.354,1.794,0.007,2.689c-0.113,0.289-0.188,0.627-0.548,0.627
			c0,0.002,0.002,0.004,0.002,0.006c-0.01,0.096-0.006,0.187-0.01,0.279c0.144,0.37,0.129,0.821,0.532,1.061
			c0.197,0.115,0.369,0.271,0.554,0.408c0.692,0.022,1.271,0.234,1.59,0.916c0.146,0.304,0.408,0.438,0.752,0.488
			c0.41,0.061,0.834,0.117,1.191,0.367c-0.101,0.826-0.072,1.072,0.293,1.973c0.147,0.367,0.225,0.713-0.037,1.057
			c0,0.025-0.002,0.054-0.002,0.08c0.041-0.004,0.08-0.014,0.121,0.002c0.312,0.543,0.25,0.98-0.341,1.455
			c-0.405,0.328-0.731,0.752-1.209,0.998c-0.297,0.152-0.34,0.33-0.143,0.652c0.166,0.273,0.635,0.625,0.055,0.979
			c-0.123,0.111-0.268,0.209-0.367,0.339c-0.36,0.461-0.797,0.633-1.381,0.476c-0.551-0.146-1.073-0.074-1.524,0.325
			c-0.254,0.226-0.418,0.42,0.063,0.537c0.174,0.041,0.355,0.063,0.304,0.299c-0.046,0.19-0.218,0.265-0.392,0.248
			c-0.205-0.021-0.406-0.088-0.608-0.135c-0.313-0.072-0.621-0.052-0.76,0.269c-0.215,0.495-0.611,0.475-1.002,0.377
			c-0.51-0.129-1.016-0.265-1.545-0.185c-0.307,0.047-0.439-0.33-0.74-0.276c-0.24-0.025-0.465-0.135-0.695-0.213
			c0.025,0.01,0.053,0.018,0.076,0.03c0.199,0.103,0.42,0.176,0.604,0.313c0.145,0.231,0.234,0.492,0.314,0.754
			c0.01,0.176,0.078,0.303,0.27,0.342c0.17,0.033,0.229,0.148,0.213,0.316c-0.018,0.186-0.146,0.237-0.295,0.271
			c-0.203,0.047-0.398,0.123-0.6,0.172c-0.309,0.073-0.523,0.181-0.529,0.56c-0.004,0.229-0.195,0.401-0.363,0.563
			c-0.148,0.142-0.357,0.303-0.225,0.524c0.121,0.201,0.338,0.07,0.516,0.033c0.49-0.102,1.004-0.148,1.244-0.699
			c0.033-0.08,0.146-0.059,0.23-0.059c0.547-0.092,0.881,0.17,1.049,0.666c0.207,0.607-0.053,0.938-0.709,0.986
			c-0.613,0.045-1.156,0.346-1.721,0.559c-0.254,0.096-0.314,0.42-0.168,0.592c0.639,0.752,0.313,1.424-0.102,2.105
			c-0.084,0.082-0.168,0.166-0.25,0.248c-0.293-0.287-0.629-0.484-1.051-0.498c-0.742-0.023-0.963-0.713-1.396-1.121
			c-0.149-0.141,0.1-0.225,0.226-0.27c0.359-0.125,0.369-0.351,0.2-0.637c-0.247-0.423-0.41-0.869-0.382-1.369
			c-0.39-0.093-0.641-0.211-0.231-0.625c0.23-0.232,0.509-0.494,0.141-0.877c-0.176-0.185-0.12-0.455,0.106-0.593
			c0.15-0.091,0.285-0.208,0.43-0.308c-0.354,0-0.677-0.053-0.852-0.551c-0.107-0.307-0.541-0.276-0.85-0.162
			c-0.228,0.086-0.531,0.179-0.508,0.484c0.025,0.344,0.262,0.57,0.609,0.627c0.199,0.033,0.349,0.133,0.502,0.246
			c0.328,0.24,0.302,0.477-0.077,0.568c-0.362,0.088-0.619,0.219-0.687,0.607c0,0.002-0.039,0.002-0.055-0.006
			c-0.018-0.009-0.029-0.029-0.044-0.043c-0.821,0.036-0.854,0.073-0.877,1.004c0.001,0.041,0.003,0.082,0.005,0.123
			c0.266-0.056,0.504,0.063,0.75,0.129c0.393,0.896,0.334,0.975-0.754,1.012c0.002,0.123,0.004,0.248,0.006,0.371
			c0.476,0.084,0.854,0.125,0.707,0.856c-0.101,0.498,0.084,1.138,0.701,1.425c0.178,0.082,0.367,0.2,0.268,0.422
			c-0.101,0.223-0.25-0.056-0.374-0.019c-0.694,0.213-1.417-0.174-2.122,0.153c-0.462,0.217-1.24,0.041-1.637-0.25
			c-0.007-0.004-0.015-0.008-0.021-0.014c-0.073-0.056-0.137-0.113-0.177-0.176c-0.002-0.039-0.004-0.078-0.007-0.119
			c-0.042,0.094-0.117,0.184-0.122,0.279c-0.052,1.096-0.268,1.277-1.395,1.148c-0.082-0.01-0.163-0.027-0.244-0.043
			c-0.152-0.498-0.503-0.73-1.01-0.754c-0.406-0.029-0.786-0.117-1.018-0.502c-0.475-0.209-0.951-0.412-1.421-0.631
			c-0.088-0.041-0.215-0.148-0.21-0.216c0.046-0.606-0.382-0.635-0.809-0.731c-0.578-0.133-0.875-0.685-1.33-1.008
			c-0.172-0.121-0.061-0.367,0.039-0.521c0.22-0.339,0.105-0.562-0.161-0.812c-0.37-0.346-0.546-1.496-0.347-1.949
			c0.138-0.312,0.438-0.271,0.695-0.332c-0.422-0.211-0.668-0.53-0.748-1.014c-0.07-0.426-0.512-0.592-0.837-0.32
			c-0.169,0.142-0.31,0.23-0.493,0.121c-0.289-0.172-0.401,0.021-0.453,0.228c-0.052,0.213,0.045,0.371,0.311,0.342
			c0.333-0.036,0.328,0.125,0.25,0.386c-0.276,0.922-0.268,0.922-1.232,0.682c-0.436-0.107-0.665,0.059-0.586,0.52
			c0.08,0.465,0.24,0.928,0.078,1.398c-0.124,0.363-0.234,0.762-0.785,0.426c-0.39-0.24-0.549,0.002-0.5,0.379
			c0.039,0.301-0.02,0.449-0.352,0.406c-0.192-0.023-0.295,0.125-0.418,0.24c-0.518,0.471-0.584,0.445-0.734-0.256
			c-0.018-0.084-0.036-0.166-0.055-0.248c-0.182-0.56-0.621-0.963-0.888-1.479c-0.282-0.545-0.897-0.685-1.509-0.664
			c-0.107,0.229-0.238,0.438,0.022,0.679c0.171,0.155,0.224,0.396,0.175,0.746c-0.744-0.607-1.563-0.908-2.477-0.916
			c-0.477-0.146-0.938-0.402-1.465-0.207c-0.054,0.021-0.154,0.026-0.18-0.004c-0.484-0.589-1.257-0.642-1.879-0.951
			c-0.782-0.392-1.266-1.115-2.027-1.494c-0.213-0.105-0.353-0.188-0.619-0.109c-0.339,0.102-0.741-0.051-0.813-0.42
			c-0.187-0.957-1.05-1.043-1.695-1.338c-0.738-0.34-1.025-0.738-0.787-1.543c-0.291-0.553-0.527-1.129-0.734-1.721
			c-0.117-0.334-0.304-0.646-0.652-0.808c-0.562-0.131-0.914-0.502-1.11-1.021c-0.226-0.59-0.791-0.711-1.267-0.946
			c-0.184-0.093-0.336,0-0.293,0.243c0.022,0.125,0.07,0.244,0.088,0.367c0.025,0.189,0.053,0.418-0.189,0.467
			c-0.244,0.048-0.349-0.18-0.338-0.36c0.037-0.646-0.285-1.153-0.553-1.698c-0.162-0.33-0.34-0.443-0.684-0.351
			c-0.576,0.155-0.979-0.093-1.252-0.586c-0.234-0.427-0.484-0.832-0.937-1.072c-0.397-0.211-0.113-0.563-0.158-0.853
			c-0.003-0.082-0.005-0.162-0.008-0.244c-0.536-0.301-0.615-0.859-0.767-1.374c-0.087-0.3-0.156-0.604-0.234-0.905
			c-0.201-0.927-0.926-1.641-1.058-2.598c-0.015-0.107-0.104-0.205-0.222-0.168c-0.23,0.074-0.129,0.257-0.123,0.42
			c0.027,0.754,0.158,1.5,0.219,2.251c-0.129-0.199-0.26-0.396-0.393-0.591c-0.768-4.006-1.23-8.045-1.032-12.135
			c0.185-3.829,0.753-7.598,1.698-11.328c0.592-2.336,1.332-4.596,2.283-6.798c0.001,0,0.001,0,0.001,0
			c0.11-0.453,0.28-0.884,0.503-1.295c0.369-0.429,0.479-0.985,0.713-1.48c0.783-1.651,1.672-3.237,2.637-4.776
			c0.35-0.105,0.689-0.256,1.004-0.487c-0.537,0.828-1.078,1.653-1.594,2.496c-0.352,0.574-0.543,1.208-0.828,1.807
			c-0.293,0.064-0.366,0.256-0.374,0.539c-0.007,0.266-0.124,0.395-0.321,0.373c0.222,0.248,0.275,0.618,0.494,0.916
			c0.297-0.35,0.658-0.604,0.855-1.001c0.431-0.864,1.084-1.566,1.699-2.29c0.594-0.7,1.134-1.443,1.707-2.149
			c0.656-0.811,1.368-1.628,2.234-2.262c0.302,0.084,0.563-0.004,0.791-0.197c0.16-0.133,0.334-0.24,0.519-0.333
			c0.871-0.444,1.104-0.366,1.448,0.484c-0.15,0.637-0.533,1.15-0.946,1.633c-0.673,0.788-1.495,1.451-1.724,2.561
			c-0.114,0.552-0.627,0.661-1.51,0.444c0.481,0.994,0.389,1.918-0.27,2.793c-0.137,0.183-0.233,0.352-0.492,0.239
			c-0.004-0.003-0.006-0.007-0.01-0.011c-0.135,0.464-0.253,0.92-0.741,1.217c-0.321,0.195-0.33,0.86-0.95,0.643
			c-0.016,0.08-0.052,0.162-0.045,0.24c0.016,0.181,0.104,0.533,0.184,0.462c0.408-0.354,0.689,0.62,1.053,0.068
			c0.171-0.259,0.443-0.291,0.708-0.355c0.704-0.173,0.772-0.341,0.39-0.97c-0.092-0.152-0.182-0.414,0.025-0.4
			c0.6,0.038,0.756-0.4,1.012-0.964c0.152,0.719,0.672,1.079,0.686,1.683c0.007,0.278,0.16,0.375,0.422,0.267
			c0.194-0.08,0.384-0.169,0.574-0.255c-0.036-0.002-0.073-0.004-0.109-0.007c-0.346-0.302-0.715-0.583-0.385-1.135
			c0.063-0.104-0.066-0.315-0.085-0.479c-0.083-0.694-0.115-1.38,0.458-1.918c0.088-0.041,0.175-0.082,0.262-0.123
			c0.639-0.479,1.104-1.126,1.648-1.695c0.295-0.308,0.546-0.549,1.058-0.445c0.456,0.092,0.947-0.04,1.325-0.388
			c-0.141-1.186,0.562-2.051,1.15-2.946c0.412-0.627,0.895-1.207,1.348-1.807c0.074-0.1,0.172-0.104,0.277-0.054
			c0.023-0.643,0.441-0.736,0.979-0.784c1.004-0.09,1.973-0.324,2.869-0.957c-0.285-0.217-0.648-0.117-0.818-0.393
			c-0.012-0.018-0.026-0.034-0.033-0.054c-0.258-0.694,0.42-0.868,0.715-1.246c0.199-0.256,0.496-0.411,0.833-0.186
			c0.321,0.216,0.312,0.771-0.044,1.111c-0.162,0.156-0.385,0.25-0.58,0.372c0.643,0.308,1.182-0.103,1.74-0.28
			c0.758-0.241,1.484-0.579,2.298-0.603c0.321,0.006,0.597-0.147,0.884-0.254c0.508-0.228,0.89,0.138,0.998,0.46
			c0.138,0.414,0.352,0.375,0.629,0.357c0.243-0.015,0.459,0.033,0.646,0.19c0.139,0.027,0.245,0.089,0.258,0.249
			c0.293,0.002,0.586,0.005,0.881,0.008c0.033-0.023,0.064-0.053,0.103-0.066c0.327-0.116,0.319-0.692,0.71-0.621
			c0.324,0.059,0.584,0.358,0.869,0.557c0.068,0.046,0.143,0.082,0.211,0.127c0.125,0.001,0.25,0.002,0.375,0.002
			c0.296,0.216,0.59,0.208,0.884-0.003l0.001-0.001c0.271-0.162,0.48-0.451,0.875-0.338c0.342,0.098,0.593,0.234,0.669,0.619
			c0.08,0.406-0.306,0.361-0.536,0.548c0.548,0.282,1.22-0.066,1.637,0.447c0.012,0.196,0.095,0.316,0.313,0.285
			c0.309-0.045,0.559,0.127,0.832,0.214c0.252,0.039,0.458,0.361,0.754,0.121c0.004-0.25,0.008-0.499,0.012-0.748
			c0.054-0.041,0.088-0.042,0.115-0.032c-0.006-0.136-0.102-0.262-0.061-0.405l0,0c-0.086-0.086-0.092-0.252-0.19-0.325
			c-0.409-0.207-0.509-0.469-0.163-0.831c0.084-0.088,0.172-0.21,0.182-0.324c0.113-1.473,1.143-1.979,2.381-2.176
			c0.653-0.104,1.211-0.551,1.871-0.602c-0.082-0.193-0.037-0.431-0.016-0.648c0.037-0.411-0.038-0.587-0.512-0.497
			c-0.529,0.1-0.835-0.264-0.758-0.811c-0.023,0.027-0.047,0.045-0.079,0.067c-0.526,0.038-0.56-0.364-0.646-0.724
			c0.197-0.338,0.426-0.624,0.881-0.614c0.231,0.005,0.366-0.146,0.371-0.39c0.046-0.106,0.121-0.19,0.186-0.272
			c-0.584-0.099-1.21,0.027-1.706-0.397c-0.071-0.053-0.122-0.128-0.191-0.182c-0.46-0.36-0.38-0.802-0.195-1.265
			c0.077-0.193,0.19-0.312,0.415-0.313c0.54-0.004,0.563-0.325,0.428-0.727c-0.099-0.292-0.16-0.572-0.033-0.793
			c-0.217,0.223-0.328,0.496-0.182,0.884c0.129,0.343-0.039,0.492-0.347,0.552c-0.271,0.053-0.544-0.012-0.817,0.005
			c-0.688,0.043-0.749,0.101-0.843,0.817c-0.055,0.216-0.149,0.407-0.329,0.545c-0.669,0.117-1.096-0.367-1.43-0.761
			c-0.368-0.435-0.521-0.457-0.768,0.021c-0.139,0.268-0.356,0.39-0.654,0.415c-1.164,0.1-1.605,0.993-2.038,1.886
			c-0.087,0.178-0.005,0.368,0.038,0.552c0.204,0.86,0,1.177-0.852,1.448c-0.51,0.162-1.09,0.304-1.539,0.165
			c-0.604-0.189-1.281-0.289-1.797-0.728c-0.156-0.134-0.309-0.368-0.442,0.016c-0.158,0.288,0.181,0.742-0.309,0.918
			c-0.56,0.202-1.095,0.552-1.724,0.189c-0.422-0.242-0.875-0.264-1.328-0.081c-0.227,0.091-0.441,0.169-0.563-0.141
			c-0.914,0.18-1.742,0.604-2.583,0.968c-1.026,0.445-1.741,1.259-2.306,2.215c-0.403,0.685-0.999,1.173-1.707,1.522
			c-0.266,0.131-0.53,0.021-0.797-0.039c-0.207-0.045-0.389-0.028-0.285,0.291c0.335,1.03,0.133,1.52-0.867,2.157
			c-0.127-0.294,0.068-0.522,0.15-0.772c0.049-0.147,0.043-0.299-0.11-0.387c-0.128-0.074-0.244-0.001-0.349,0.071
			c-0.291,0.197-0.434,0.505-0.596,0.799c-0.123,0.226-0.264,0.46-0.569,0.405c-0.286-0.052-0.304-0.31-0.337-0.541
			c-0.302-0.06-0.605-0.119-0.873-0.171c-0.168-0.713,0.13-1.394,0.119-2.099c0.018-0.026,0.035-0.053,0.053-0.078
			c0.5,0.045,1.064-0.312,1.102-0.794c0.027-0.358,0.183-0.53,0.467-0.654c0.477-0.03,0.918-0.109,0.945-0.729
			c0.008-0.169,0.127-0.261,0.261-0.336c0.29-0.045,0.635,0.171,0.866-0.179c0.031-0.003,0.063-0.006,0.093-0.009
			c0.349-0.122,0.583-0.336,0.795-0.663c0.302-0.465,0.833-0.691,1.367-0.787c0.962-0.173,1.933-0.301,2.603-1.123
			c0.475-0.584,1.174-0.872,1.728-1.352c0.06-0.052,0.167-0.113,0.225-0.093c0.743,0.261,1.395-0.141,2.086-0.261
			c0.368-0.063,0.694-0.153,0.918-0.476c0.035-0.051,0.12-0.13,0.134-0.122c0.623,0.401,1.084-0.205,1.631-0.26
			c0.154-0.015,0.257,0.065,0.26,0.208c0.011,0.708,0.352,0.309,0.581,0.165c0.173-0.108,0.31-0.272,0.511-0.456
			c-0.319-0.182-0.604-0.346-0.891-0.507c-0.112-0.064-0.223-0.134-0.223-0.28c0-0.18,0.133-0.266,0.282-0.288
			c0.563-0.086,1.014-0.565,1.706-0.292c0.449,0.177,1.008-0.048,1.197-0.652c0.164-0.523,0.664-0.603,1.067-0.804
			c0.44-0.22,0.951-0.312,1.166-0.864c0.118-0.304,0.484-0.304,0.755-0.402c1.118-0.41,2.238-0.816,3.363-1.209
			c0.383-0.134,0.791-0.079,1.189-0.094c0.249-0.009,0.52,0.025,0.697-0.207c0.139-0.181,0.317-0.366,0.516-0.192
			c0.252,0.22,0.697,0.269,0.715,0.718c0.008,0.188-0.005,0.378-0.008,0.567c0.93,0.733,1.135,1.997,2.021,2.764
			c0.229,0.199,0.193,0.453,0.042,0.682c-0.103,0.154-0.241,0.284-0.368,0.421c-0.178,0.189-0.493,0.314-0.388,0.649
			c0.042,0.132,0.12,0.211,0.212,0.27c0.082-0.056,0.167-0.108,0.247-0.167c0.308-0.154,0.612-0.029,0.917,0.011
			c0.166,0.021,0.395,0.144,0.484,0.027c0.295-0.392,0.793-0.469,1.117-0.757c0.326-0.292,0.525-0.299,0.803-0.036
			c0.211,0.201,0.418,0.395,0.525,0.692c0.117,0.324,0.535,0.35,0.705,0.06c0.119-0.206,0.365-0.197,0.531-0.381
			c-0.074-0.279-0.502-0.392-0.422-0.768c0.049-0.243,0.24-0.387,0.359-0.582c0.166-0.277,0.441-0.291,0.719-0.293
			c0.455-0.003,0.875-0.099,1.211-0.434c0.656-0.144,1.018,0.357,1.391,0.714c0.717,0.684,1.438,1.058,2.439,0.604
			c0.373-0.169,0.732,0.125,1.008,0.381c0.193,0.178,0.148,0.371-0.129,0.478c-0.359,0.14-0.709,0.261-1.098,0.097
			c-0.146-0.062-0.306-0.168-0.48-0.022c0.074,0.271,0.344,0.349,0.514,0.521c-0.082,0.125-0.162,0.25-0.244,0.375
			c-0.315,0.082-0.664,0.215-0.549,0.598c0.098,0.326,0.479,0.25,0.762,0.247c0.185-0.002,0.383-0.242,0.545,0.04
			c-0.594,0.091-1.149,0.354-1.774,0.32c-0.283-0.015-0.539-0.045-0.771-0.207c-0.229-0.161-0.438-0.181-0.692-0.017
			c-0.404,0.257-0.918,0.101-1.147-0.313c-0.063-0.109-0.093-0.239-0.166-0.336c-0.132-0.17-0.321-0.185-0.517-0.119
			c-0.105,0.036-0.197,0.111-0.178,0.228c0.057,0.317,0.342,0.003,0.49,0.2c-0.393,0.437-0.297,0.79,0.253,1.038
			c0.224,0.101,0.328,0.258,0.328,0.543c0,0.685,0.258,0.919,0.957,0.93c0.693,0.011,1.389-0.026,2.08,0.005
			c0.354,0.016,0.779,0.001,0.717,0.616c-0.012,0.106,0.465,0.303,0.736,0.389c0.324,0.102,0.656,0.182,0.977,0.303
			c0.06-0.052,0.129-0.095,0.228-0.105c0.181-0.002,0.358-0.023,0.529,0.054c0.368,0.09,0.606,0.431,0.977,0.521
			c0.138,0.122,0.345,0.222,0.437,0.047c0.316-0.602,0.779-0.303,1.199-0.236c0.354,0.058,0.692,0.303,0.869-0.317
			c0.09-0.32,0.534-0.243,0.812-0.065c0.168,0.108,0.291,0.252,0.477,0.053c0.631,0,1.232,0.063,1.512,0.761
			c0.056,0.114,0.107,0.229,0.166,0.341c0.131,0.25,0.191,0.665,0.566,0.55c0.416-0.127,1.043,0.047,1.164-0.639V19.87
			c0.592,0.152,1.125,0.517,1.764,0.511c-0.063,0.108-0.106,0.237-0.195,0.319c-0.223,0.207-0.555,0.354-0.366,0.751
			c0.19,0.412,0.519,0.643,0.976,0.683c0.25,0.021,0.51,0.01,0.748,0.076c0.422,0.118,0.864,0.253,1.008,0.748
			c0.188,0.649,0.621,0.844,1.248,0.706c0.41-0.134,0.799-0.181,1.178,0.128c0.182,0.149,0.443,0.113,0.672,0.066
			c0.736-0.153,1.346,0.063,1.768,0.673c0.285,0.412,0.563,0.433,0.926,0.145c0.64,0.017,1.244,0.14,1.754,0.561
			c0.23,0.188,0.506,0.178,0.775,0.189c0.24,0.297,0.59,0.291,0.916,0.312c0.359,0.023,0.645,0.149,0.846,0.451
			c0.83,0.324,1.656,0.654,2.49,0.97c0.109,0.042,0.219,0.083,0.32,0.136c0.049-0.13,0.094-0.261,0.123-0.399
			c0.066-0.308,0.234-0.554,0.596-0.508c0.359,0.046,0.514-0.098,0.615-0.435c0.094-0.306,0.354-0.43,0.691-0.412
			c0.309,0.016,0.485,0.126,0.588,0.429c0.057,0.164,0.193,0.314,0.381,0.535c-0.537-0.671-0.725-1.406-1.027-2.078
			c-0.205-0.46-0.762-0.494-0.887-0.969c-0.123-0.467-0.047-1.015-0.459-1.374c-0.441-0.384-0.213-0.803-0.107-1.219
			c0.029-0.117,0.152-0.13,0.256-0.151c0.021,0.003,0.033,0.014,0.053,0.018c0.017-0.104-0.098-0.168-0.211-0.23v-0.655
			c0.646,0.533,1.256,0.965,1.773,1.486c0.393,0.394,0.893,0.622,1.291,0.992c0.354,0.327,0.133,0.398-0.174,0.451
			c0.004,0.125,0.01,0.25,0.016,0.374c-0.051,0.139-0.104,0.275-0.147,0.415c-0.099,0.314-0.244,0.438-0.523,0.16
			c-0.118-0.117-0.284-0.277-0.43-0.13c-0.156,0.158,0.041,0.307,0.146,0.422c0.248,0.275,0.717,0.46,0.34,0.958
			c-0.015,0.018,0.014,0.099,0.039,0.109c0.688,0.257,0.766,1.233,1.588,1.343c0.285,0.038,0.381,0.229,0.248,0.512
			c-0.107,0.229-0.097,0.475,0.104,0.637c0.23,0.187,0.242-0.128,0.361-0.203c0.086-0.053,0.176-0.041,0.219,0.041
			c0.119,0.222,0.285,0.485,0.098,0.703c-0.268,0.314-0.346,0.587-0.111,0.953c0.111,0.174,0.058,0.314-0.215,0.288
			c-0.424-0.042-0.438,0.307-0.504,0.587c-0.09,0.378,0.187,0.349,0.43,0.444c0.31,0.121,0.416,0.479,0.603,0.75
			c0.302,0.44,0.302,0.955,0.486,1.417c0.079,0.198,0.057,0.418-0.152,0.564c-0.442,0.31-0.549,0.778-0.562,1.273
			c-0.018,0.712-0.182,1.383,0.14,2.14c0.271,0.642,0.778,0.712,1.205,0.947c0.799,0.441,1.08,0.835,0.858,1.712
			c-0.086,0.341-0.09,0.64,0.011,0.974c0.146,0.485,0.409,0.963,0.127,1.5c-0.078,0.152,0.063,0.318,0.194,0.433
			c0.623,0.536,0.625,1.19,0.363,1.896C94.143,44.047,94.102,44.088,94.044,44.114z"/>
		<path d="M32.54,56.797c0.064-0.029,0.13-0.084,0.195-0.182c0.055-0.081,0.121-0.141,0.191-0.18
			c-0.025,0.006-0.049,0.004-0.073,0.013C32.744,56.49,32.632,56.627,32.54,56.797z"/>
		<path d="M32.927,56.436c0.215-0.043,0.406,0.064,0.533,0.24c0.063,0.088,0.131,0.146,0.203,0.193
			c-0.058-0.059-0.113-0.131-0.162-0.242C33.395,56.385,33.141,56.316,32.927,56.436z"/>
		<path d="M34.033,56.96c-0.143,0.007-0.264-0.022-0.369-0.091C33.777,56.982,33.903,56.998,34.033,56.96z"/>
		<path d="M31.778,54.98c0.093-0.115,0.063-0.201,0.025-0.284c-0.026,0.31-0.205,0.555-0.54,0.75
			c-0.121,0.071-0.194,0.218-0.244,0.387c0.265-0.106,0.467-0.164,0.551,0.022C31.559,55.547,31.568,55.243,31.778,54.98z"/>
		<path d="M31.904,56.672c-0.184-0.021-0.264-0.119-0.299-0.262c-0.002,0.363,0.062,0.745,0.57,0.879
			c0.146,0.037,0.135,0.271,0.148,0.294c-0.037-0.144,0.064-0.508,0.217-0.786C32.326,56.895,32.114,56.699,31.904,56.672z"/>
		<path d="M31.57,55.855c0.003,0.107,0.008,0.217,0.009,0.324c0.001,0.09,0.011,0.164,0.026,0.23
			c0.001-0.074,0.004-0.148,0.006-0.219C31.619,56.034,31.601,55.928,31.57,55.855z"/>
		<path d="M53.556,0C24.026,0,0,24.025,0,53.557c0,29.531,24.026,53.556,53.556,53.556s53.556-24.024,53.556-53.556
			C107.112,24.025,83.086,0,53.556,0z M53.556,106.362c-29.117,0-52.806-23.688-52.806-52.806C0.75,24.438,24.439,0.75,53.556,0.75
			c29.118,0,52.806,23.689,52.806,52.807C106.362,82.674,82.674,106.362,53.556,106.362z"/>
	</g>
</g>
</svg>